HIERARCHY
ROOT hip
{
	OFFSET 0.000000 0.000000 0.000000
	CHANNELS 6 Xposition Yposition Zposition Zrotation Yrotation Xrotation 
	JOINT lhipjoint
	{
		OFFSET 0.000000 0.000000 0.000000
		CHANNELS 3 Zrotation Yrotation Xrotation
		JOINT lfemur
		{
			OFFSET 1.363060 -1.794630 0.839290
			CHANNELS 3 Zrotation Yrotation Xrotation
			JOINT ltibia
			{
				OFFSET 2.448110 -6.726130 0.000000
				CHANNELS 3 Zrotation Yrotation Xrotation
				JOINT lfoot
				{
					OFFSET 2.562200 -7.039590 0.000000
					CHANNELS 3 Zrotation Yrotation Xrotation
					JOINT ltoes
					{
						OFFSET 0.157640 -0.433110 2.322550
						CHANNELS 3 Zrotation Yrotation Xrotation
						End Site
						{
							OFFSET 0.000000 0.000000 0.000000
						}
					}
				}
			}
		}
	}
	JOINT rhipjoint
	{
		OFFSET 0.000000 0.000000 0.000000
		CHANNELS 3 Zrotation Yrotation Xrotation
		JOINT rfemur
		{
			OFFSET -1.305520 -1.794630 0.839290
			CHANNELS 3 Zrotation Yrotation Xrotation
			JOINT rtibia
			{
				OFFSET -2.542530 -6.985550 0.000000
				CHANNELS 3 Zrotation Yrotation Xrotation
				JOINT rfoot
				{
					OFFSET -2.568260 -7.056230 0.000000
					CHANNELS 3 Zrotation Yrotation Xrotation
					JOINT rtoes
					{
						OFFSET -0.164730 -0.452590 2.363150
						CHANNELS 3 Zrotation Yrotation Xrotation
						End Site
						{
							OFFSET 0.000000 0.000000 0.000000
						}
					}
				}
			}
		}
	}
	JOINT lowerback
	{
		OFFSET 0.000000 0.000000 0.000000
		CHANNELS 3 Zrotation Yrotation Xrotation
		JOINT upperback
		{
			OFFSET 0.028270 2.035590 -0.193380
			CHANNELS 3 Zrotation Yrotation Xrotation
			JOINT thorax
			{
				OFFSET 0.056720 2.048850 -0.042750
				CHANNELS 3 Zrotation Yrotation Xrotation
				JOINT lowerneck
				{
					OFFSET 0.000000 0.000000 0.000000
					CHANNELS 3 Zrotation Yrotation Xrotation
					JOINT upperneck
					{
						OFFSET -0.054170 1.746240 0.172020
						CHANNELS 3 Zrotation Yrotation Xrotation
						JOINT head
						{
							OFFSET 0.104070 1.761360 -0.123970
							CHANNELS 3 Zrotation Yrotation Xrotation
							End Site
							{
								OFFSET 0.000000 0.000000 0.000000
							}
						}
					}
				}
				JOINT lclavicle
				{
					OFFSET 0.000000 0.000000 0.000000
					CHANNELS 3 Zrotation Yrotation Xrotation
					JOINT lhumerus
					{
						OFFSET 3.362410 1.200890 -0.311210
						CHANNELS 3 Zrotation Yrotation Xrotation
						JOINT lradius
						{
							OFFSET 4.983000 -0.000000 -0.000000
							CHANNELS 3 Zrotation Yrotation Xrotation
							JOINT lwrist
							{
								OFFSET 3.483560 -0.000000 -0.000000
								CHANNELS 3 Zrotation Yrotation Xrotation
								JOINT lhand
								{
									OFFSET 0.000000 0.000000 0.000000
									CHANNELS 3 Zrotation Yrotation Xrotation
									JOINT lfingers
									{
										OFFSET 0.715260 -0.000000 -0.000000
										CHANNELS 3 Zrotation Yrotation Xrotation
										End Site
										{
											OFFSET 0.000000 0.000000 0.000000
										}
									}
								}
								JOINT lthumb
								{
									OFFSET 0.000000 0.000000 0.000000
									CHANNELS 3 Zrotation Yrotation Xrotation
									End Site
									{
										OFFSET 0.000000 0.000000 0.000000
									}
								}
							}
						}
					}
				}
				JOINT rclavicle
				{
					OFFSET 0.000000 0.000000 0.000000
					CHANNELS 3 Zrotation Yrotation Xrotation
					JOINT rhumerus
					{
						OFFSET -3.136600 1.374050 -0.404650
						CHANNELS 3 Zrotation Yrotation Xrotation
						JOINT rradius
						{
							OFFSET -5.241900 -0.000000 -0.000000
							CHANNELS 3 Zrotation Yrotation Xrotation
							JOINT rwrist
							{
								OFFSET -3.444170 -0.000000 -0.000000
								CHANNELS 3 Zrotation Yrotation Xrotation
								JOINT rhand
								{
									OFFSET 0.000000 0.000000 0.000000
									CHANNELS 3 Zrotation Yrotation Xrotation
									JOINT rfingers
									{
										OFFSET -0.622530 -0.000000 -0.000000
										CHANNELS 3 Zrotation Yrotation Xrotation
										End Site
										{
											OFFSET 0.000000 0.000000 0.000000
										}
									}
								}
								JOINT rthumb
								{
									OFFSET 0.000000 0.000000 0.000000
									CHANNELS 3 Zrotation Yrotation Xrotation
									End Site
									{
										OFFSET 0.000000 0.000000 0.000000
									}
								}
							}
						}
					}
				}
			}
		}
	}
}
MOTION
Frames: 8
Frame Time: 0.008333
1.080271 15.826125 -18.301514 14.363475 26.289083 27.700158 7.603251 2.290781 -0.124656 -20.985097 -30.916115 -61.849988 7.292955 19.744767 56.054938 6.052800 -19.471741 15.507844 0.100500 -2.044300 -5.628100 -7.578349 -4.350989 3.391434 -3.412125 10.654047 -68.461760 -14.272586 -21.877771 74.626684 1.383017 -8.652287 -12.682988 -0.861200 5.917800 -16.546100 13.364162 -7.172317 86.581132 -0.125652 3.882306 -1.673567 -7.508451 3.967930 -7.437921 -2.207124 -9.055957 0.764027 1.506387 -11.334371 9.238967 1.150800 -5.491400 1.368600 -4.054631 -3.497808 3.195258 -74.109929 -0.083926 44.847570 54.715128 -60.759013 -23.030008 -0.368531 3.223664 -14.602269 12.154469 -6.848933 -2.099700 -7.125000 0.000000 0.000000 -10.831000 19.695600 6.666200 5.357751 5.245643 4.005545 -18.365058 55.394483 -91.396266 5.941834 8.772831 0.865222 0.539955 0.826417 56.445324 -53.778176 12.336144 -14.326000 7.125000 0.000000 0.000000 -17.506100 -12.611500 -13.943700 
1.072310 15.810403 -18.291065 14.580368 26.469978 27.780749 7.599429 2.295411 -0.112456 -21.239918 -30.860385 -61.884734 7.332975 19.781395 56.209541 6.073776 -19.764872 15.556815 0.099900 -2.037800 -5.610100 -7.551556 -4.341089 3.394826 -3.614873 10.559562 -68.495814 -14.379100 -21.906502 74.945509 1.385381 -8.673247 -12.883697 -0.865700 5.932900 -16.589800 13.374780 -7.183098 86.744893 -0.124686 3.948608 -1.686347 -7.533432 3.988438 -7.427698 -2.038176 -9.151921 0.727176 1.545262 -11.469378 9.209303 1.106400 -5.550200 1.333000 -4.029000 -3.480717 3.150170 -74.148934 -0.101493 44.880003 54.714888 -60.763862 -23.016968 -0.367620 3.230656 -14.543408 12.182161 -6.855694 -2.107900 -7.125000 0.000000 0.000000 -10.810300 19.679800 6.656800 5.421490 5.212202 4.180831 -19.542789 55.393478 -92.595083 6.076763 8.653845 0.893834 0.609237 0.808875 58.180894 -52.704545 11.728642 -13.028900 7.125000 0.000000 0.000000 -17.038000 -13.925500 -13.038100 
1.064449 15.793586 -18.278627 14.754462 26.633313 27.797043 7.586178 2.306088 -0.056192 -21.444538 -30.777708 -61.920303 7.371953 19.817144 56.363497 6.092957 -20.063184 15.649129 0.093600 -1.973600 -5.432700 -7.536479 -4.341167 3.438327 -3.779298 10.530218 -68.513669 -14.482858 -21.923578 75.250765 1.385563 -8.691045 -13.104435 -0.865400 5.931800 -16.586500 13.342338 -7.183972 87.200350 -0.143189 4.067523 -1.780388 -7.564096 4.013515 -7.509999 -1.903070 -9.242730 0.710461 1.611169 -11.594967 9.147709 1.088700 -5.606100 1.293000 -4.001480 -3.524010 3.079005 -74.184905 -0.112912 44.884226 54.786160 -60.766533 -23.045673 -0.366163 3.239851 -14.490556 12.213990 -6.864593 -2.117500 -7.125000 0.000000 0.000000 -10.787300 19.659500 6.647200 5.431811 5.235642 4.302916 -20.700090 55.297972 -93.773054 6.221617 8.509512 0.907916 0.679385 0.778373 60.048876 -51.410244 10.987968 -11.572200 7.125000 0.000000 0.000000 -16.448500 -15.427700 -11.991900 
1.056687 15.779058 -18.266686 14.934598 26.819831 27.873027 7.581249 2.311700 -0.041395 -21.666826 -30.697418 -61.971129 7.409371 19.851811 56.508897 6.113155 -20.383745 15.698915 0.094700 -1.984800 -5.463500 -7.514934 -4.333633 3.444789 -3.940833 10.461328 -68.544366 -14.583102 -21.948397 75.548847 1.388656 -8.717428 -13.326748 -0.861600 5.918900 -16.549400 13.367719 -7.204985 87.386525 -0.144187 4.138017 -1.798423 -7.603889 4.033610 -7.534697 -1.759306 -9.329145 0.693851 1.670271 -11.715007 9.103992 1.072400 -5.659500 1.255600 -3.984747 -3.522047 3.034335 -74.232188 -0.086785 44.870181 54.787076 -60.765614 -23.042097 -0.359436 3.248168 -14.373090 12.256831 -6.911848 -2.136500 -7.125000 0.000000 0.000000 -10.756100 19.601900 6.641300 5.485671 5.220885 4.471864 -21.841535 55.265371 -94.935161 6.352051 8.407389 0.921885 0.758608 0.745252 62.066838 -49.966089 10.264320 -10.166600 7.125000 0.000000 0.000000 -15.735800 -16.889200 -10.907800 
1.048627 15.765624 -18.254346 15.110951 27.021450 27.927932 7.580933 2.314135 -0.030694 -21.883312 -30.622229 -61.980304 7.442813 19.883518 56.642984 6.129515 -20.674755 15.777566 0.091900 -1.955400 -5.382500 -7.499292 -4.326987 3.447737 -4.078558 10.409988 -68.524277 -14.679381 -21.970834 75.834505 1.399540 -8.766550 -13.542130 -0.857300 5.904500 -16.507600 13.407069 -7.259338 87.586805 -0.146212 4.179858 -1.811808 -7.669829 4.054249 -7.509083 -1.571979 -9.412800 0.622919 1.707886 -11.834147 9.048689 1.027600 -5.711000 1.208000 -3.965681 -3.497020 2.984738 -74.299792 -0.103876 44.827427 54.782156 -60.766928 -23.044005 -0.349644 3.261713 -14.230503 12.346987 -6.996143 -2.172900 -7.125000 0.000000 0.000000 -10.691400 19.499400 6.625000 5.548232 5.188867 4.663092 -23.108734 55.234450 -96.265229 6.475926 8.328854 0.933855 0.842086 0.707150 64.084394 -48.456912 9.623599 -8.929200 7.125000 0.000000 0.000000 -14.933800 -18.183300 -9.868900 
1.041064 15.751195 -18.242007 15.291144 27.202980 27.995090 7.574994 2.317432 -0.013717 -22.112660 -30.529447 -62.002800 7.475060 19.914570 56.772322 6.145711 -20.985181 15.845415 0.090700 -1.942000 -5.345400 -7.478431 -4.321048 3.457984 -4.227912 10.330940 -68.548172 -14.775460 -21.993233 76.119356 1.409339 -8.811377 -13.740547 -0.864900 5.929900 -16.581300 13.446445 -7.308471 87.802975 -0.150326 4.230419 -1.834940 -7.742740 4.068445 -7.572465 -1.454811 -9.503718 0.647598 1.773125 -11.953489 8.994962 1.035700 -5.765900 1.163800 -3.962027 -3.505219 2.941398 -74.360115 -0.049147 44.798907 54.763033 -60.752551 -23.030957 -0.335323 3.267772 -14.135909 12.365004 -7.109026 -2.198700 -7.125000 0.000000 0.000000 -10.681000 19.381600 6.646900 5.590229 5.190382 4.829889 -24.213513 55.176693 -97.402837 6.604925 8.244316 0.934876 0.924601 0.660139 66.141999 -46.796333 9.001082 -7.772300 7.125000 0.000000 0.000000 -13.996100 -19.405300 -8.815900 
1.033302 15.739254 -18.228872 15.457694 27.379873 28.045890 7.572243 2.321648 0.002427 -22.328088 -30.434521 -62.009747 7.504290 19.943675 56.894000 6.159481 -21.288317 15.937639 0.087000 -1.902300 -5.235800 -7.465821 -4.314789 3.464600 -4.357678 10.290789 -68.519506 -14.865535 -22.011742 76.385171 1.402802 -8.813579 -13.961040 -0.853800 5.893000 -16.474300 13.473233 -7.354008 88.042721 -0.152501 4.287662 -1.857294 -7.781965 4.084121 -7.607949 -1.346695 -9.580827 0.610497 1.821820 -12.060000 8.943234 1.024800 -5.814700 1.137900 -3.946971 -3.512691 2.894821 -74.477652 -0.011316 44.734867 54.807417 -60.765703 -23.052368 -0.324563 3.281218 -13.989556 12.407342 -7.193683 -2.226100 -7.125000 0.000000 0.000000 -10.650900 19.281900 6.651600 5.633925 5.185710 4.991469 -25.355985 55.094063 -98.558591 6.738337 8.143510 0.937435 1.005763 0.611518 68.140154 -45.198831 8.518911 -6.860200 7.125000 0.000000 0.000000 -13.040600 -20.368400 -7.890500 
1.025342 15.725920 -18.216533 15.601818 27.582117 28.101039 7.569723 2.324154 0.015025 -22.505001 -30.356390 -62.032805 7.534875 19.972616 57.015417 6.171892 -21.585685 16.007598 0.085200 -1.883300 -5.183100 -7.449455 -4.309858 3.471633 -4.454151 10.226452 -68.525731 -14.954658 -22.031836 76.648000 1.420942 -8.883107 -14.158091 -0.866500 5.935400 -16.597100 13.527528 -7.436871 88.251186 -0.156200 4.314317 -1.874721 -7.842717 4.098962 -7.597584 -1.246631 -9.652453 0.520393 1.860579 -12.159455 8.891270 1.014200 -5.861100 1.125900 -3.942146 -3.497766 2.843720 -74.578728 -0.033941 44.667120 54.827576 -60.766969 -23.066628 -0.316861 3.293125 -13.900164 12.461319 -7.268914 -2.253800 -7.125000 0.000000 0.000000 -10.613100 19.191900 6.648800 5.675897 5.161875 5.164881 -26.555619 55.048700 -99.809936 6.877407 8.045207 0.939364 1.084390 0.563291 70.086933 -43.662747 8.066822 -6.058000 7.125000 0.000000 0.000000 -12.093800 -21.239200 -7.046800 
